<svg width="240" height="212" viewBox="0 0 240 212" fill="none" xmlns="http://www.w3.org/2000/svg">
<g id="Group 4">
<g id="mention_isometric 2">
<g id="mention_isometric">
<path id="Path" d="M115.994 178.096L5.67604 112.919C2.16387 110.945 -0.846563 107.71 2.57555 105.588L113.286 41.7996C114.946 40.7707 117.467 40.0954 119.159 41.0793L234.945 108.269C238.457 110.308 239.087 115.987 235.588 118.044L130.532 177.993C126.045 180.595 120.517 180.634 115.994 178.096Z" fill="#5B36A0"/>
<path id="Path Copy" d="M115.994 175.088L5.67604 109.911C2.16387 107.936 -0.846563 104.702 2.57555 102.579L113.286 38.7912C114.946 37.7623 117.467 37.087 119.159 38.071L234.945 105.261C238.457 107.3 239.087 112.978 235.588 115.036L130.532 174.985C126.045 177.587 120.517 177.626 115.994 175.088Z" fill="#6862E6"/>
<g id="Path_2" style="mix-blend-mode:multiply" opacity="0.25">
<path d="M125.09 89.0938L103.322 101.512C103.322 101.512 136.855 121.969 143.712 124.85L156.249 106.843" fill="url(#paint0_linear_0_9)"/>
</g>
<g id="Path_3" style="mix-blend-mode:multiply" opacity="0.25">
<path d="M117.57 148.67L95.796 136.277L74.0219 148.695C74.0219 148.695 85.3624 155.615 96.2013 161.969C103.084 157.101 109.973 152.181 117.57 148.67Z" fill="url(#paint1_linear_0_9)"/>
</g>
<g id="Path_4" style="mix-blend-mode:multiply" opacity="0.46">
<path d="M70.6577 72.1419L56.847 80.0198C56.847 80.0198 58.0178 87.2417 64.8749 90.1227L82.9568 78.5471" fill="url(#paint2_linear_0_9)"/>
</g>
<ellipse id="Oval" cx="77.4183" cy="74.1548" rx="8.33015" ry="5.86499" fill="#68E1FD"/>
<ellipse id="Oval_2" cx="77.4118" cy="70.695" rx="6.23957" ry="2.55307" fill="#974C26"/>
<path id="Shape" fill-rule="evenodd" clip-rule="evenodd" d="M77.058 62.9843C77.1481 64.1354 77.1867 65.2866 77.1867 66.4377C77.1803 67.8782 77.1095 69.3188 76.9551 70.7528C76.4598 70.0647 75.9709 69.3445 75.4563 68.5342C74.7938 67.4988 74.1763 66.4377 73.6102 65.3509C73.0839 64.3844 72.6344 63.3781 72.2658 62.3412C71.8559 61.215 71.527 60.0609 71.2816 58.8878C71.2173 58.6049 71.1594 58.2705 71.1079 57.9618V57.8524V57.5823C71.0565 56.9778 71.005 56.3348 71.005 55.6917C70.9764 53.5046 71.3991 51.3351 72.2465 49.3186C74.4987 52.5842 76.0172 56.2984 76.6978 60.2062C76.7407 60.4377 76.7814 60.6713 76.82 60.9071C76.82 60.8621 76.9101 61.3316 76.9101 61.5052L76.9744 62.0904C77.0044 62.3862 77.0323 62.6842 77.058 62.9843ZM73.9126 53.4919C73.9126 53.492 73.9126 53.4922 73.9125 53.4923H73.9061C73.9083 53.4922 73.9104 53.492 73.9126 53.4919ZM73.9126 53.4919C74.0709 53.483 74.2296 53.5005 74.3821 53.5437C74.2277 53.3722 74.0712 53.205 73.9125 53.0421C73.9455 53.1902 73.9456 53.3438 73.9126 53.4919Z" fill="#999A1C"/>
<path id="Shape_2" fill-rule="evenodd" clip-rule="evenodd" d="M81.0848 64.3477C80.5381 65.3959 79.972 66.3541 79.3287 67.3252C78.5504 68.5406 77.6884 69.711 76.8329 70.8493C76.775 70.0069 76.775 69.1322 76.775 68.174C76.775 66.9457 76.8265 65.7239 76.9423 64.502C77.0217 63.4039 77.1873 62.3137 77.4376 61.2415C77.7003 60.0715 78.0464 58.9217 78.4732 57.801C78.589 57.5052 78.7112 57.2158 78.8334 56.9264L78.8334 56.9264L78.8656 56.8235L78.9943 56.5855C79.2837 56.0261 79.5925 55.473 79.927 54.9392C81.0887 53.0812 82.6216 51.483 84.4298 50.2447C84.5603 54.2126 83.8296 58.1617 82.2877 61.8203C82.1977 62.0304 82.1055 62.2447 82.0111 62.4634L81.7602 63.0165L81.4965 63.5502C81.3636 63.816 81.2263 64.0818 81.0848 64.3477ZM83.7929 54.2704C83.7496 54.4156 83.675 54.5495 83.5742 54.6627C83.6997 54.7289 83.8146 54.8134 83.9152 54.9135C83.8808 54.7077 83.8401 54.4934 83.7929 54.2704Z" fill="#999A1C"/>
<path id="Shape_3" fill-rule="evenodd" clip-rule="evenodd" d="M81.2135 69.1515C80.5745 69.5245 79.9312 69.8718 79.2837 70.1934C78.4732 70.5985 77.6434 70.9586 76.8136 71.3059C77.058 70.8364 77.3346 70.3541 77.6434 69.8397C78.0486 69.1966 78.4732 68.5535 78.9299 67.9104C79.3268 67.3429 79.7677 66.8075 80.2486 66.3091C80.769 65.7618 81.3279 65.2525 81.921 64.785L82.397 64.4313L82.4485 64.3862L82.5965 64.2962C82.9374 64.0904 83.2783 63.8911 83.6321 63.711C84.8557 63.0823 86.1958 62.7123 87.5688 62.6242C86.3588 64.805 84.691 66.6983 82.6801 68.174L82.3199 68.4377L82.0111 68.6564L81.6959 68.8557L81.2135 69.1515ZM85.9092 64.5856C85.8392 64.6503 85.7557 64.6986 85.6648 64.7271V64.7335C85.7077 64.8142 85.7381 64.9009 85.7548 64.9907C85.8106 64.8578 85.862 64.7228 85.9092 64.5856Z" fill="#999A1C"/>
<path id="Shape_4" fill-rule="evenodd" clip-rule="evenodd" d="M77.058 62.9843C77.1481 64.1354 77.1867 65.2866 77.1867 66.4377C77.1803 67.8782 77.1095 69.3188 76.9551 70.7528C76.4598 70.0647 75.9709 69.3445 75.4563 68.5342C74.7938 67.4988 74.1763 66.4377 73.6102 65.3509C73.0839 64.3844 72.6344 63.3781 72.2658 62.3412C71.8559 61.215 71.527 60.0609 71.2816 58.8878C71.2173 58.6049 71.1594 58.2705 71.1079 57.9618V57.8524V57.5823C71.0565 56.9778 71.005 56.3348 71.005 55.6917C70.9764 53.5046 71.3991 51.3351 72.2465 49.3186C74.4987 52.5842 76.0172 56.2984 76.6978 60.2062C76.7407 60.4377 76.7814 60.6713 76.82 60.9071C76.82 60.8621 76.9101 61.3316 76.9101 61.5052L76.9744 62.0904C77.0044 62.3862 77.0323 62.6842 77.058 62.9843ZM73.9126 53.4919C73.9126 53.492 73.9126 53.4922 73.9125 53.4923H73.9061C73.9083 53.4922 73.9104 53.492 73.9126 53.4919ZM73.9126 53.4919C74.0709 53.483 74.2296 53.5005 74.3821 53.5437C74.2277 53.3722 74.0712 53.205 73.9125 53.0421C73.9455 53.1902 73.9456 53.3438 73.9126 53.4919Z" fill="#999A1C"/>
<path id="Shape_5" fill-rule="evenodd" clip-rule="evenodd" d="M81.0848 64.3477C80.5381 65.3959 79.972 66.3541 79.3287 67.3252C78.5504 68.5406 77.6884 69.711 76.8329 70.8493C76.775 70.0069 76.775 69.1322 76.775 68.174C76.775 66.9457 76.8265 65.7239 76.9423 64.502C77.0217 63.4039 77.1873 62.3137 77.4376 61.2415C77.7003 60.0715 78.0464 58.9217 78.4732 57.801C78.589 57.5052 78.7112 57.2158 78.8334 56.9264L78.8334 56.9264L78.8656 56.8235L78.9943 56.5855C79.2837 56.0261 79.5925 55.473 79.927 54.9392C81.0887 53.0812 82.6216 51.483 84.4298 50.2447C84.5603 54.2126 83.8296 58.1617 82.2877 61.8203C82.1977 62.0304 82.1055 62.2447 82.0111 62.4634L81.7602 63.0165L81.4965 63.5502C81.3636 63.816 81.2263 64.0818 81.0848 64.3477ZM83.7929 54.2704C83.7496 54.4156 83.675 54.5495 83.5742 54.6627C83.6997 54.7289 83.8146 54.8134 83.9152 54.9135C83.8808 54.7077 83.8401 54.4934 83.7929 54.2704Z" fill="#999A1C"/>
<path id="Shape_6" fill-rule="evenodd" clip-rule="evenodd" d="M81.2135 69.1515C80.5745 69.5245 79.9312 69.8718 79.2837 70.1934C78.4732 70.5985 77.6434 70.9586 76.8136 71.3059C77.058 70.8364 77.3346 70.3541 77.6434 69.8397C78.0486 69.1966 78.4732 68.5535 78.9299 67.9104C79.3268 67.3429 79.7677 66.8075 80.2486 66.3091C80.769 65.7618 81.3279 65.2525 81.921 64.785L82.397 64.4313L82.4485 64.3862L82.5965 64.2962C82.9374 64.0904 83.2783 63.8911 83.6321 63.711C84.8557 63.0823 86.1958 62.7123 87.5688 62.6242C86.3588 64.805 84.691 66.6983 82.6801 68.174L82.3199 68.4377L82.0111 68.6564L81.6959 68.8557L81.2135 69.1515ZM85.9092 64.5856C85.8392 64.6503 85.7557 64.6986 85.6648 64.7271V64.7335C85.7077 64.8142 85.7381 64.9009 85.7548 64.9907C85.8106 64.8578 85.862 64.7228 85.9092 64.5856Z" fill="#999A1C"/>
<path id="Path_5" d="M133.735 84.2449L121.687 90.0327C120.762 90.4772 120.158 91.3963 120.118 92.4216C120.077 93.4469 120.607 94.4106 121.494 94.9266L150.048 111.583C151.331 112.332 152.976 111.938 153.779 110.689L160.72 99.8977" fill="#A1482D"/>
<path id="Path_6" d="M199.264 56.3283L103.194 0.983927C101.852 0.212773 100.201 0.214722 98.862 0.989043C97.5225 1.76336 96.6973 3.19268 96.6967 4.73958V62.3155C96.6966 63.6022 97.3832 64.7911 98.4978 65.4345L200.917 124.541C201.636 124.958 202.523 124.958 203.242 124.543C203.962 124.127 204.405 123.359 204.403 122.528V65.1901C204.4 61.5294 202.44 58.1495 199.264 56.3283Z" fill="#F47B56"/>
<path id="Path_7" d="M103.2 5.33765L196.369 58.9264C198.394 60.0921 199.642 62.2497 199.643 64.5856V107.743C199.642 108.584 199.193 109.36 198.466 109.781C197.738 110.202 196.842 110.205 196.112 109.788L101.097 55.3058C100.373 54.891 99.926 54.1207 99.9258 53.2865V7.23477C99.9258 6.45496 100.341 5.7342 101.016 5.34317C101.691 4.95214 102.523 4.95004 103.2 5.33765Z" fill="white"/>
<ellipse id="Oval_3" cx="141.964" cy="84.4673" rx="2.02623" ry="2.31515" transform="rotate(-10.9 141.964 84.4673)" fill="#AB643C"/>
<path id="Path_8" opacity="0.32" d="M128.242 63.8911L171.539 89.8977L192.928 77.4667L154.712 55.2286" fill="url(#paint3_linear_0_9)"/>
<path id="Path_9" d="M181.748 58.7142L134.938 30.1803C134.428 29.8852 133.797 29.8904 133.292 30.1938C132.787 30.4972 132.486 31.0511 132.507 31.6401V47.8974C132.503 48.4956 132.813 49.0521 133.324 49.3636L180.127 77.2931C180.627 77.5774 181.241 77.5738 181.739 77.2835C182.236 76.9933 182.541 76.4603 182.539 75.8847L182.783 60.7271C182.82 59.9199 182.426 59.1539 181.748 58.7142Z" fill="#E2AC00"/>
<path id="Path_10" d="M170.549 67.0808C172.228 69.4281 175.18 70.084 177.136 68.5535C179.091 67.0229 179.316 63.8782 177.637 61.5373C175.959 59.1965 173.006 58.5341 171.05 60.0647C169.095 61.5952 168.87 64.7335 170.549 67.0808Z" fill="white"/>
<path id="Path_11" d="M165.956 55.8139L146.864 44.3218C146.524 44.1628 146.119 44.2884 145.929 44.6118C145.739 44.9352 145.826 45.3501 146.131 45.5694L165.223 57.0614C165.562 57.2205 165.967 57.0949 166.157 56.7715C166.348 56.4481 166.26 56.0332 165.956 55.8139V55.8139Z" fill="#F2F2F2"/>
<path id="Path_12" d="M165.171 60.4827L138.856 44.6434C138.523 44.5271 138.155 44.6662 137.982 44.9734C137.809 45.2806 137.882 45.6673 138.154 45.891L164.438 61.7367C164.778 61.8958 165.183 61.7701 165.373 61.4467C165.563 61.1234 165.475 60.7085 165.171 60.4891V60.4827Z" fill="#F2F2F2"/>
<path id="Path_13" d="M172.408 61.8653L125.624 33.3378C125.113 33.0428 124.483 33.048 123.978 33.3514C123.472 33.6548 123.172 34.2086 123.192 34.7976V51.0485C123.185 51.6478 123.492 52.2069 124.003 52.5212L170.806 80.4507C171.312 80.7414 171.936 80.7366 172.437 80.4379C172.938 80.1393 173.239 79.5934 173.225 79.0101L173.469 63.8525C173.491 63.0493 173.087 62.294 172.408 61.8653V61.8653Z" fill="#F47B56"/>
<path id="Path_14" d="M161.209 70.2319C162.888 72.5792 165.84 73.2352 167.796 71.7046C169.751 70.1741 169.976 67.0293 168.297 64.6885C166.618 62.3476 163.666 61.6853 161.71 63.2158C159.755 64.7464 159.53 67.8846 161.209 70.2319Z" fill="white"/>
<path id="Path_15" d="M156.616 58.965L137.511 47.473C137.171 47.3139 136.766 47.4395 136.576 47.7629C136.386 48.0863 136.473 48.5012 136.778 48.7206L155.87 60.2126C156.209 60.3716 156.614 60.246 156.805 59.9226C156.995 59.5992 156.907 59.1843 156.603 58.965H156.616Z" fill="#F2F2F2"/>
<path id="Path_16" d="M155.825 63.666L129.516 47.8009C129.176 47.6419 128.771 47.7675 128.581 48.0909C128.391 48.4143 128.478 48.8292 128.782 49.0485L155.098 64.8879C155.438 65.0469 155.843 64.9213 156.033 64.5979C156.223 64.2745 156.135 63.8596 155.831 63.6403L155.825 63.666Z" fill="#F2F2F2"/>
<path id="Path_17" d="M160.668 63.7817L113.871 35.2542C113.361 34.9592 112.731 34.9644 112.225 35.2678C111.72 35.5712 111.419 36.125 111.44 36.714V52.9649C111.436 53.5632 111.746 54.1197 112.257 54.4312L159.06 82.3606C159.566 82.6514 160.19 82.6465 160.691 82.3479C161.192 82.0493 161.494 81.5034 161.479 80.9201L161.723 65.7624C161.744 64.9628 161.344 64.2108 160.668 63.7817V63.7817Z" fill="#68E1FD"/>
<path id="Path_18" d="M160.668 63.7817L113.871 35.2542C113.361 34.9592 112.731 34.9644 112.225 35.2678C111.72 35.5712 111.419 36.125 111.44 36.714V52.9649C111.436 53.5632 111.746 54.1197 112.257 54.4312L159.06 82.3606C159.566 82.6514 160.19 82.6465 160.691 82.3479C161.192 82.0493 161.494 81.5034 161.479 80.9201L161.723 65.7624C161.744 64.9628 161.344 64.2108 160.668 63.7817V63.7817Z" fill="#68E1FD"/>
<path id="Path_19" d="M149.463 72.1483C151.142 74.4956 154.094 75.1516 156.05 73.621C158.005 72.0905 158.23 68.9458 156.552 66.6049C154.873 64.2641 151.92 63.6017 149.965 65.1322C148.009 66.6628 147.803 69.8011 149.463 72.1483Z" fill="white"/>
<path id="Path_20" d="M144.87 60.8814L125.772 49.3894C125.432 49.2303 125.027 49.3559 124.837 49.6793C124.647 50.0027 124.734 50.4176 125.038 50.637L144.13 62.129C144.47 62.2881 144.875 62.1624 145.065 61.839C145.255 61.5156 145.168 61.1008 144.864 60.8814H144.87Z" fill="#F2F2F2"/>
<path id="Path_21" d="M144.079 65.5567L117.763 49.7173C117.423 49.5583 117.018 49.6839 116.828 50.0073C116.638 50.3307 116.726 50.7456 117.03 50.9649L143.345 66.8043C143.685 66.9633 144.09 66.8377 144.28 66.5143C144.47 66.1909 144.383 65.776 144.079 65.5567V65.5567Z" fill="#F2F2F2"/>
<path id="Path_22" d="M99.2504 62.1869C96.2264 64.7891 93.9394 68.14 92.6184 71.904C90.2898 78.3349 96.1113 88.843 96.1113 88.843L105.168 81.6725" fill="#FF8F6F"/>
<path id="Path_23" d="M98.2725 147.21L95.8153 145.853L96.4586 142.342C96.4586 142.342 100.119 142.689 100.44 143.988" fill="#003B94"/>
<path id="Path_24" d="M99.1732 147.158C99.7264 146.818 100.305 146.515 100.878 146.213C102.299 145.435 104.351 144.631 105.226 143.171C105.593 142.567 105.547 141.798 105.11 141.242C103.824 139.686 101.006 142.245 99.5656 140.522C99.2825 140.181 99.1474 134.773 99.1474 134.773L93.6669 136.252C93.6669 136.252 92.7406 147.12 92.8436 147.789C92.9465 148.457 94.8312 149.075 94.8312 149.075C95.3925 148.956 95.9283 148.738 96.4136 148.432C96.9861 148.014 96.4651 142.914 97.1984 143.628C97.9317 144.342 98.2533 147.133 98.2533 147.133C98.5577 147.179 98.8667 147.187 99.1732 147.158Z" fill="#F47B56"/>
<path id="Path_25" d="M108.738 152.464L106.281 151.126L106.924 147.615C106.924 147.615 110.585 147.962 110.906 149.261" fill="#003B94"/>
<path id="Path_26" d="M109.665 152.412C110.218 152.072 110.797 151.769 111.369 151.467C112.791 150.689 114.843 149.885 115.718 148.425C116.085 147.821 116.039 147.052 115.602 146.496C114.315 144.94 111.498 147.499 110.057 145.776C109.774 145.435 109.639 140.027 109.639 140.027L104.158 141.506C104.158 141.506 103.226 152.412 103.329 153.056C103.432 153.699 105.316 154.342 105.316 154.342C105.878 154.223 106.413 154.005 106.899 153.699C107.471 153.281 106.95 148.181 107.683 148.895C108.417 149.609 108.738 152.4 108.738 152.4C109.045 152.442 109.357 152.446 109.665 152.412Z" fill="#F47B56"/>
<path id="Path_27" d="M90.8817 117.133L89.2671 138.721C89.2671 138.721 91.8401 142.271 100.466 140.297V140.297L100.55 125.744" fill="#3E2928"/>
<path id="Path_28" d="M100.846 121.409C100.659 123.268 100.846 143.769 100.846 143.769C100.846 143.769 103.232 148.232 113.621 143.769L113.473 126.348" fill="#3E2928"/>
<path id="Path_29" d="M90.0775 124.264C90.7851 124.753 91.0295 122.239 91.7693 122.67C94.4605 124.232 97.3169 125.492 100.286 126.425H100.35C100.493 126.356 100.658 126.347 100.807 126.402C100.957 126.456 101.077 126.569 101.141 126.715C102.976 127.262 104.843 127.691 106.731 128.001C109.156 128.387 111.163 126.592 113.653 126.47C113.653 116.94 113.698 89.8141 109.639 84.0262L97.6293 79.9876C97.5714 80.978 91.8014 87.6661 91.943 95.8205C92.1038 105.01 90.9073 113.679 90.7015 116.554C90.6693 117.043 90.1032 123.744 90.0775 124.264Z" fill="#3E2928"/>
<path id="Path_30" d="M110.745 73.068L109.639 84.0005C109.639 84.0005 100.678 84.3606 96.8188 81.6982V72.4249" fill="#FF8F6F"/>
<path id="Path_31" d="M122.137 65.8718L121.224 67.1194C121.711 66.1047 122.14 65.0634 122.51 64.0004C122.768 63.2737 121.603 62.9843 121.346 63.711L121.211 64.084C121.322 63.6981 121.428 63.3101 121.526 62.92C121.606 62.5986 121.41 62.2732 121.089 62.1933C120.767 62.1134 120.442 62.3092 120.362 62.6306C120.11 63.6398 119.807 64.6356 119.455 65.6145C119.651 64.7454 119.793 63.8648 119.879 62.9779C119.957 62.2126 118.754 62.2448 118.683 62.9779C118.583 63.9875 118.402 64.9875 118.143 65.9682C118.143 65.6253 118.111 65.2823 118.046 64.9393C118.028 64.7663 117.937 64.6093 117.795 64.5084C117.763 64.3734 117.725 64.2448 117.68 64.1097C117.585 63.832 117.305 63.6619 117.015 63.7062C116.725 63.7506 116.509 63.9966 116.502 64.2898L116.425 68.7914C116.207 69.2582 115.924 69.6914 115.583 70.0776C116.161 70.4779 116.72 70.9072 117.255 71.3638C117.733 71.7674 118.188 72.1968 118.619 72.65C119.005 72.1698 119.376 71.681 119.732 71.1837C119.776 71.1462 119.815 71.103 119.847 71.0551C120.919 69.4688 122.026 67.9082 123.166 66.3734C123.643 65.8461 122.594 65.2608 122.137 65.8718Z" fill="#FFB5A9"/>
<path id="Path_32" d="M105.059 63.1001C105.059 63.1001 109.292 64.2383 111.009 66.9586C112.085 68.8414 113.032 70.7944 113.846 72.8043L116.972 67.949C116.972 67.949 120.767 69.113 122.272 70.9779C122.272 70.9779 117.77 80.8172 113.846 81.6597C109.922 82.5021 105.754 75.8847 105.754 75.8847C105.754 75.8847 104.892 78.65 105.059 75.6982" fill="#FF8F6F"/>
<path id="Path_33" d="M107.748 73.6146C106.517 72.6138 105.589 71.2915 105.065 69.7946C104.557 68.0647 105.194 66.547 105.786 64.9393C106.426 63.3457 106.8 61.6575 106.892 59.9425C106.944 58.2576 106.751 56.5727 106.635 54.8942C106.618 54.8223 106.618 54.7475 106.635 54.6756C106.069 52.7785 104.911 51.1707 102.627 50.9778C96.7159 50.4762 96.3814 57.0229 96.4265 59.6853C96.4715 62.3476 96.7545 64.1483 94.7926 65.2608C92.8307 66.3734 91.4155 69.293 93.2874 71.6532C95.1593 74.0133 93.4804 73.1516 92.2325 75.248C90.9845 77.3445 91.3062 79.9619 93.8663 80.9072C96.4265 81.8526 108.327 80.0777 109.42 78.978C109.808 78.5349 110.009 77.9584 109.98 77.3702C109.713 75.8903 108.92 74.5566 107.748 73.6146V73.6146Z" fill="#007F68"/>
<path id="Shape_7" fill-rule="evenodd" clip-rule="evenodd" d="M115.235 24.5082C115.144 22.7551 114.565 21.0623 113.563 19.6207C112.671 18.1801 111.354 17.052 109.793 16.3924C108.994 16.0358 108.09 15.99 107.259 16.2638C106.466 16.5445 105.811 17.1204 105.432 17.8715C104.975 18.7668 104.771 19.7693 104.84 20.7718C104.896 21.9644 105.175 23.1358 105.664 24.2252C106.151 25.3659 106.825 26.4177 107.658 27.3378C108.36 28.1558 109.24 28.8025 110.231 29.2285C110.579 29.3676 110.945 29.4606 111.318 29.505C111.602 29.5431 111.889 29.5431 112.173 29.505C112.395 29.4743 112.611 29.4137 112.817 29.3249C112.947 29.2736 113.074 29.2135 113.196 29.1449L113.325 29.0548L112.546 27.6079L112.289 27.7494C112.028 27.8701 111.74 27.9232 111.453 27.9037C111.011 27.9084 110.574 27.823 110.166 27.6529C108.996 27.1163 108.032 26.2134 107.42 25.0805C106.651 23.9336 106.207 22.6005 106.133 21.222C106.009 20.1258 106.39 19.0328 107.169 18.2509C107.906 17.5993 108.967 17.4642 109.845 17.9101C111.026 18.401 112.023 19.2515 112.694 20.341C113.441 21.4117 113.871 22.6708 113.936 23.9744C113.983 25.2906 113.696 25.8265 113.074 25.5822C112.852 25.4863 112.667 25.3217 112.546 25.1127C112.404 24.8964 112.324 24.6449 112.315 24.386L112.186 20.7718L110.9 20.2702V20.8426L110.784 20.6368C110.652 20.4485 110.496 20.2778 110.321 20.1287C110.115 19.9422 109.878 19.7941 109.62 19.6914C109.099 19.4355 108.474 19.5333 108.057 19.9358C107.582 20.4591 107.363 21.1652 107.458 21.8651C107.485 22.7295 107.743 23.5709 108.204 24.3024C108.587 24.9756 109.179 25.506 109.89 25.8137C110.188 25.9486 110.52 25.989 110.842 25.9294C111.034 25.9012 111.216 25.8236 111.369 25.7043C111.43 25.6382 111.482 25.5648 111.524 25.4857L111.678 25.7879C111.826 26.0478 112.013 26.2841 112.231 26.4889C112.474 26.7409 112.768 26.9382 113.093 27.0677C113.626 27.3511 114.283 27.2373 114.688 26.7912C115.152 26.1263 115.347 25.3109 115.235 24.5082ZM110.99 23.2413C111.032 23.581 110.937 23.9235 110.726 24.1931C110.528 24.3889 110.227 24.4356 109.98 24.3088C109.635 24.1596 109.348 23.9023 109.163 23.5757C108.937 23.2163 108.811 22.8036 108.796 22.3796C108.751 22.0424 108.855 21.7024 109.079 21.4471C109.296 21.2515 109.611 21.2105 109.87 21.3442C110.201 21.4878 110.474 21.7365 110.649 22.0516C110.862 22.4126 110.98 22.8221 110.99 23.2413Z" fill="#F47B56"/>
<path id="Shape_8" fill-rule="evenodd" clip-rule="evenodd" d="M191.184 94.142C191.095 92.3886 190.515 90.6953 189.512 89.2546C188.652 87.7979 187.362 86.6431 185.82 85.9491C185.017 85.5951 184.113 85.5493 183.279 85.8205C182.486 86.1051 181.832 86.6827 181.452 87.4346C180.995 88.3274 180.79 89.328 180.86 90.3285C180.915 91.5211 181.195 92.6926 181.683 93.7819C182.171 94.9247 182.845 95.9786 183.677 96.9009C184.381 97.7166 185.261 98.361 186.251 98.7852C186.597 98.9261 186.96 99.0212 187.331 99.0681C187.617 99.106 187.907 99.106 188.193 99.0681C188.414 99.0337 188.63 98.9733 188.836 98.8881C188.967 98.8367 189.094 98.7766 189.216 98.708L189.345 98.618L188.566 97.171L188.309 97.3125C188.047 97.4306 187.76 97.4836 187.473 97.4668C187.031 97.4667 186.594 97.3792 186.186 97.2096C185.017 96.6989 184.043 95.8265 183.407 94.7208C182.638 93.5745 182.193 92.2411 182.121 90.8623C181.984 89.7637 182.356 88.6629 183.131 87.8719C183.871 87.2241 184.93 87.0917 185.807 87.5375C186.985 88.0286 187.979 88.8765 188.65 89.962C189.396 91.0354 189.826 92.2964 189.891 93.6019C189.93 94.9202 189.666 95.454 189.023 95.2096C188.801 95.1137 188.616 94.9491 188.495 94.7401C188.355 94.5227 188.275 94.2719 188.264 94.0134L188.135 90.3993L186.849 89.9041V90.4764L186.727 90.2706C186.594 90.0805 186.439 89.9077 186.263 89.7562C186.058 89.5693 185.82 89.4212 185.562 89.3189C185.044 89.064 184.421 89.1618 184.006 89.5632C183.528 90.0847 183.308 90.7924 183.407 91.4925C183.434 92.3598 183.694 93.2039 184.16 93.9363C184.542 94.6119 185.133 95.1447 185.845 95.454C186.141 95.5891 186.472 95.6273 186.791 95.5633C186.984 95.5365 187.166 95.4588 187.318 95.3382C187.377 95.2711 187.429 95.1978 187.473 95.1195L187.627 95.4218C187.777 95.6808 187.963 95.9169 188.18 96.1228C188.425 96.3731 188.718 96.5702 189.042 96.7015C189.575 96.9826 190.23 96.869 190.638 96.425C191.101 95.7601 191.296 94.9447 191.184 94.142ZM186.945 92.8752C186.986 93.2157 186.888 93.5584 186.675 93.8269C186.476 94.0206 186.175 94.0647 185.929 93.9363C185.584 93.7845 185.297 93.5251 185.112 93.1967C184.887 92.8396 184.76 92.429 184.745 92.007C184.7 91.6688 184.806 91.3279 185.035 91.0745C185.253 90.881 185.568 90.8426 185.826 90.978C186.155 91.1211 186.427 91.3701 186.598 91.6854C186.814 92.0455 186.934 92.4553 186.945 92.8752Z" fill="#F47B56"/>
<g id="Path_34" style="mix-blend-mode:multiply" opacity="0.25">
<path d="M61.324 116.676L39.5498 104.29L17.7821 116.702C17.7821 116.702 29.8946 124.264 40.7334 130.618C47.6163 125.756 53.7336 120.194 61.324 116.676Z" fill="url(#paint4_linear_0_9)"/>
</g>
</g>
</g>
<path id="Path Copy_2" opacity="0.0991676" d="M116.454 210.048L4.66655 142.239C1.10762 140.185 -1.94289 136.82 1.52479 134.612L113.709 68.2482C115.391 67.1778 117.946 66.4753 119.66 67.4989L236.988 137.402C240.547 139.523 241.186 145.43 237.64 147.571L131.185 209.941C126.638 212.648 121.037 212.688 116.454 210.048Z" fill="#6862E6"/>
</g>
<defs>
<linearGradient id="paint0_linear_0_9" x1="124.88" y1="93.0298" x2="119.356" y2="109.429" gradientUnits="userSpaceOnUse">
<stop stop-color="#78B46A"/>
<stop offset="0.03" stop-color="#7F3500"/>
<stop offset="1" stop-color="white"/>
</linearGradient>
<linearGradient id="paint1_linear_0_9" x1="88.6379" y1="126.59" x2="79.3452" y2="155.86" gradientUnits="userSpaceOnUse">
<stop stop-color="#78B46A"/>
<stop offset="0.03" stop-color="#7F3500"/>
<stop offset="1" stop-color="white"/>
</linearGradient>
<linearGradient id="paint2_linear_0_9" x1="65.6228" y1="65.182" x2="57.0255" y2="85.0579" gradientUnits="userSpaceOnUse">
<stop stop-color="#78B46A"/>
<stop offset="0.03" stop-color="#7F3500"/>
<stop offset="1" stop-color="white"/>
</linearGradient>
<linearGradient id="paint3_linear_0_9" x1="186.611" y1="82.9565" x2="183.253" y2="74.4329" gradientUnits="userSpaceOnUse">
<stop stop-color="white" stop-opacity="0.01"/>
<stop offset="0.99" stop-color="#DC841E"/>
</linearGradient>
<linearGradient id="paint4_linear_0_9" x1="32.9121" y1="94.437" x2="23.1352" y2="123.753" gradientUnits="userSpaceOnUse">
<stop stop-color="#78B46A"/>
<stop offset="0.03" stop-color="#7F3500"/>
<stop offset="1" stop-color="white"/>
</linearGradient>
</defs>
</svg>
